<?xml version="1.0" encoding="UTF-8"?><svg id="a" xmlns="http://www.w3.org/2000/svg" viewBox="0 0 1224.74 284.48"><defs><style>.b{fill:#fff;}.c{fill:#0872b9;}.d{fill:#231f20;}</style></defs><g><path class="c" d="M193.77,50.79L53.57,171.95,206.47,22.91c.07-.07,.14-.15,.21-.22,.08-.07,.16-.14,.23-.22l.39-.38v.03c6.73-6.33,14.98-10.08,23.52-11.27H12.68V274.04L200.39,76.59c-4.98-7.82-7.18-16.88-6.61-25.8Z"/><path class="c" d="M266.84,84.32c-1.06,1.04-2.16,2.01-3.3,2.91L110.23,235.74,236.51,96.56c-9.34-.05-18.65-3.13-26.36-9.2L12.68,274.04H279.59V57.92c-.99,9.68-5.24,19.07-12.75,26.4Z"/><path class="b" d="M207.3,22.1l-.39,.38c.12-.12,.25-.23,.38-.35v-.03Z"/><path class="b" d="M267.57,23.42c-9.93-10.17-23.67-14.38-36.75-12.57-8.54,1.18-16.79,4.94-23.53,11.27-.13,.12-.25,.23-.38,.35-.08,.07-.16,.14-.23,.22-.07,.07-.14,.15-.21,.22L53.57,171.95,193.77,50.79c-.56,8.92,1.64,17.97,6.61,25.8L12.68,274.04,210.15,87.36c7.71,6.07,17.02,9.15,26.36,9.2L110.23,235.74,263.54,87.24c1.14-.91,2.24-1.88,3.3-2.91,7.51-7.32,11.76-16.72,12.75-26.4,1.26-12.27-2.73-24.99-12.02-34.5Z"/></g><g><path class="d" d="M451.64,127.47c0,1.72-.05,3.18-.15,4.39s-.26,2.24-.46,3.1c-.21,.86-.48,1.6-.83,2.22-.35,.62-.9,1.33-1.65,2.12-.76,.79-2.22,1.81-4.39,3.05-2.17,1.24-4.82,2.43-7.95,3.56-3.13,1.14-6.71,2.08-10.74,2.84-4.03,.76-8.38,1.14-13.06,1.14-9.15,0-17.41-1.41-24.78-4.23-7.37-2.82-13.63-7.04-18.79-12.65-5.16-5.61-9.12-12.61-11.87-21.01-2.75-8.4-4.13-18.17-4.13-29.32s1.51-21.44,4.54-30.25c3.03-8.81,7.26-16.21,12.7-22.2,5.44-5.99,11.96-10.53,19.56-13.63,7.6-3.1,15.98-4.65,25.14-4.65,3.72,0,7.29,.31,10.74,.93,3.44,.62,6.62,1.43,9.55,2.43,2.92,1,5.56,2.15,7.9,3.46,2.34,1.31,3.97,2.43,4.9,3.35s1.56,1.7,1.91,2.32c.34,.62,.62,1.41,.83,2.37,.21,.96,.36,2.1,.46,3.41,.1,1.31,.15,2.93,.15,4.85,0,2.06-.07,3.82-.21,5.27-.14,1.45-.38,2.62-.72,3.51-.35,.9-.76,1.55-1.24,1.96-.48,.41-1.03,.62-1.65,.62-1.03,0-2.34-.6-3.92-1.81-1.58-1.2-3.63-2.55-6.14-4.03-2.51-1.48-5.51-2.82-8.98-4.03-3.48-1.2-7.62-1.81-12.44-1.81-5.3,0-10.03,1.08-14.2,3.25-4.17,2.17-7.71,5.27-10.63,9.29-2.93,4.03-5.15,8.9-6.66,14.61-1.52,5.71-2.27,12.15-2.27,19.31,0,7.85,.81,14.64,2.43,20.39,1.62,5.75,3.92,10.48,6.92,14.2,2.99,3.72,6.61,6.49,10.84,8.31,4.23,1.82,9,2.74,14.3,2.74,4.82,0,8.98-.57,12.49-1.7s6.52-2.39,9.03-3.77c2.51-1.38,4.58-2.61,6.19-3.72,1.62-1.1,2.87-1.65,3.77-1.65,.69,0,1.24,.14,1.65,.41,.41,.28,.76,.83,1.03,1.65,.27,.83,.48,1.98,.62,3.46,.14,1.48,.21,3.46,.21,5.94Z"/><path class="d" d="M578.05,97.94c0,8.19-1.21,15.52-3.61,21.99-2.41,6.47-5.95,11.94-10.63,16.41-4.68,4.47-10.46,7.88-17.34,10.22-6.88,2.34-14.8,3.51-23.74,3.51-8.4,0-15.93-1.05-22.61-3.15-6.68-2.1-12.32-5.28-16.93-9.55-4.61-4.27-8.14-9.58-10.58-15.95-2.44-6.37-3.66-13.82-3.66-22.35V17.83c0-.69,.21-1.31,.62-1.86,.41-.55,1.15-1,2.22-1.34,1.07-.34,2.46-.62,4.18-.83,1.72-.21,3.92-.31,6.61-.31s4.78,.1,6.5,.31c1.72,.21,3.1,.48,4.13,.83,1.03,.35,1.77,.79,2.22,1.34,.45,.55,.67,1.17,.67,1.86V96.7c0,5.3,.65,9.9,1.96,13.78,1.31,3.89,3.18,7.11,5.63,9.65,2.44,2.55,5.37,4.46,8.77,5.73,3.41,1.27,7.21,1.91,11.41,1.91s8.09-.65,11.46-1.96c3.37-1.31,6.23-3.22,8.57-5.73,2.34-2.51,4.15-5.61,5.42-9.29,1.27-3.68,1.91-7.86,1.91-12.54V17.83c0-.69,.21-1.31,.62-1.86,.41-.55,1.14-1,2.17-1.34,1.03-.34,2.43-.62,4.18-.83s3.94-.31,6.56-.31,4.77,.1,6.45,.31c1.69,.21,3.05,.48,4.08,.83,1.03,.35,1.75,.79,2.17,1.34,.41,.55,.62,1.17,.62,1.86V97.94Z"/><path class="d" d="M684.13,137.07c0,2-.09,3.67-.26,5.01-.17,1.34-.43,2.43-.77,3.25-.34,.83-.77,1.43-1.29,1.81-.52,.38-1.08,.57-1.7,.57h-67.1c-2.27,0-4.18-.67-5.73-2.01-1.55-1.34-2.32-3.53-2.32-6.56V22.68c0-3.03,.77-5.21,2.32-6.56,1.55-1.34,3.46-2.01,5.73-2.01h66.69c.62,0,1.17,.17,1.65,.52,.48,.35,.89,.95,1.24,1.81,.34,.86,.6,1.96,.77,3.3,.17,1.34,.26,3.05,.26,5.11,0,1.93-.09,3.56-.26,4.9-.17,1.34-.43,2.43-.77,3.25-.35,.83-.76,1.43-1.24,1.81-.48,.38-1.03,.57-1.65,.57h-47.7v32.62h40.37c.62,0,1.19,.19,1.7,.57,.52,.38,.95,.96,1.29,1.75,.34,.79,.6,1.86,.77,3.2,.17,1.34,.26,2.98,.26,4.9s-.09,3.65-.26,4.96c-.17,1.31-.43,2.36-.77,3.15-.34,.79-.77,1.36-1.29,1.7-.52,.35-1.08,.52-1.7,.52h-40.37v37.68h48.11c.62,0,1.19,.19,1.7,.57,.52,.38,.95,.98,1.29,1.81,.34,.83,.6,1.91,.77,3.25,.17,1.34,.26,3.01,.26,5.01Z"/><path class="d" d="M779.37,136.35c0,2.07-.09,3.8-.26,5.21-.17,1.41-.43,2.58-.77,3.51-.34,.93-.77,1.6-1.29,2.01-.52,.41-1.12,.62-1.81,.62h-61.22c-2.27,0-4.18-.67-5.73-2.01-1.55-1.34-2.32-3.53-2.32-6.56V17.83c0-.69,.22-1.31,.67-1.86,.45-.55,1.19-1,2.22-1.34,1.03-.34,2.43-.62,4.18-.83,1.75-.21,3.94-.31,6.56-.31s4.89,.1,6.61,.31c1.72,.21,3.1,.48,4.13,.83,1.03,.35,1.77,.79,2.22,1.34,.45,.55,.67,1.17,.67,1.86V125.3h42.02c.69,0,1.29,.19,1.81,.57,.52,.38,.95,1,1.29,1.86,.34,.86,.6,2,.77,3.41,.17,1.41,.26,3.15,.26,5.21Z"/><path class="d" d="M909.71,79.36c0,11.08-1.38,20.99-4.13,29.73-2.75,8.74-6.85,16.16-12.29,22.25-5.44,6.09-12.17,10.74-20.18,13.94-8.02,3.2-17.29,4.8-27.82,4.8s-19.46-1.36-27.2-4.08c-7.74-2.72-14.2-6.87-19.36-12.44s-9.03-12.66-11.61-21.27c-2.58-8.6-3.87-18.79-3.87-30.56,0-10.8,1.38-20.53,4.13-29.17,2.75-8.64,6.85-15.98,12.29-22.04,5.44-6.06,12.17-10.7,20.18-13.94,8.02-3.23,17.33-4.85,27.93-4.85s19.05,1.34,26.79,4.03c7.74,2.68,14.21,6.81,19.41,12.39,5.2,5.57,9.12,12.61,11.77,21.11,2.65,8.5,3.97,18.53,3.97,30.09Zm-28.49,1.45c0-7.02-.55-13.4-1.65-19.15-1.1-5.75-2.98-10.67-5.63-14.76-2.65-4.09-6.18-7.26-10.58-9.5-4.41-2.24-9.91-3.35-16.52-3.35s-12.25,1.26-16.73,3.77c-4.47,2.51-8.09,5.87-10.84,10.07-2.75,4.2-4.7,9.1-5.83,14.71-1.14,5.61-1.7,11.55-1.7,17.81,0,7.3,.55,13.85,1.65,19.67,1.1,5.82,2.96,10.79,5.58,14.92,2.62,4.13,6.13,7.28,10.53,9.45,4.4,2.17,9.95,3.25,16.62,3.25s12.25-1.24,16.72-3.72c4.47-2.48,8.09-5.85,10.84-10.12,2.75-4.27,4.7-9.24,5.83-14.92s1.7-11.72,1.7-18.12Z"/><path class="d" d="M1037.58,34.86c0,2-.09,3.72-.26,5.16-.17,1.45-.41,2.6-.72,3.46-.31,.86-.69,1.46-1.14,1.81-.45,.35-.98,.52-1.6,.52-.9,0-2.34-.62-4.34-1.86-2-1.24-4.65-2.58-7.95-4.03-3.3-1.45-7.24-2.79-11.82-4.03-4.58-1.24-9.89-1.86-15.95-1.86-6.47,0-12.32,1.12-17.55,3.35-5.23,2.24-9.7,5.4-13.42,9.5-3.72,4.1-6.57,9.02-8.57,14.76-2,5.75-2.99,12.1-2.99,19.05,0,7.64,1.01,14.37,3.04,20.18,2.03,5.82,4.87,10.69,8.52,14.61,3.65,3.92,8.04,6.88,13.16,8.88,5.13,2,10.79,2.99,16.98,2.99,3.03,0,6.02-.34,8.98-1.03,2.96-.69,5.71-1.72,8.26-3.1v-30.97h-25.29c-1.24,0-2.2-.77-2.89-2.32-.69-1.55-1.03-4.18-1.03-7.9,0-1.93,.09-3.54,.26-4.85,.17-1.31,.43-2.36,.77-3.15,.34-.79,.76-1.38,1.24-1.75,.48-.38,1.03-.57,1.65-.57h45.12c1.1,0,2.08,.19,2.94,.57,.86,.38,1.62,.95,2.27,1.7,.65,.76,1.15,1.67,1.5,2.74,.34,1.07,.52,2.29,.52,3.67v53.17c0,2.06-.36,3.87-1.08,5.42s-2.2,2.77-4.44,3.67c-2.24,.9-5.01,1.82-8.31,2.79-3.3,.96-6.73,1.79-10.27,2.48-3.55,.69-7.12,1.2-10.74,1.55-3.61,.34-7.24,.52-10.89,.52-10.67,0-20.22-1.53-28.65-4.59-8.43-3.06-15.57-7.5-21.42-13.32-5.85-5.82-10.32-12.9-13.42-21.27-3.1-8.36-4.65-17.84-4.65-28.44s1.65-20.77,4.96-29.47c3.3-8.71,7.98-16.1,14.04-22.2,6.06-6.09,13.37-10.75,21.94-13.99,8.57-3.23,18.12-4.85,28.65-4.85,5.78,0,11.05,.4,15.8,1.19,4.75,.79,8.89,1.76,12.44,2.89,3.54,1.14,6.49,2.36,8.83,3.67,2.34,1.31,3.97,2.44,4.9,3.41,.93,.96,1.6,2.32,2.01,4.08s.62,4.35,.62,7.79Z"/><path class="d" d="M1090.28,143.99c0,.69-.22,1.31-.67,1.86-.45,.55-1.19,1-2.22,1.34-1.03,.35-2.41,.62-4.13,.83-1.72,.21-3.92,.31-6.61,.31s-4.8-.1-6.56-.31c-1.76-.21-3.15-.48-4.18-.83-1.03-.34-1.77-.79-2.22-1.34-.45-.55-.67-1.17-.67-1.86V17.83c0-.69,.22-1.31,.67-1.86,.45-.55,1.2-1,2.27-1.34,1.07-.34,2.46-.62,4.18-.83,1.72-.21,3.89-.31,6.5-.31s4.89,.1,6.61,.31c1.72,.21,3.1,.48,4.13,.83,1.03,.35,1.77,.79,2.22,1.34,.45,.55,.67,1.17,.67,1.86v126.16Z"/><path class="d" d="M1209.68,127.47c0,1.72-.05,3.18-.16,4.39-.1,1.2-.26,2.24-.46,3.1-.21,.86-.48,1.6-.83,2.22-.34,.62-.9,1.33-1.65,2.12-.76,.79-2.22,1.81-4.39,3.05-2.17,1.24-4.82,2.43-7.95,3.56s-6.71,2.08-10.74,2.84c-4.03,.76-8.38,1.14-13.06,1.14-9.15,0-17.41-1.41-24.78-4.23-7.37-2.82-13.63-7.04-18.79-12.65-5.16-5.61-9.12-12.61-11.87-21.01-2.75-8.4-4.13-18.17-4.13-29.32s1.51-21.44,4.54-30.25c3.03-8.81,7.26-16.21,12.7-22.2,5.44-5.99,11.96-10.53,19.56-13.63,7.6-3.1,15.98-4.65,25.14-4.65,3.72,0,7.29,.31,10.74,.93,3.44,.62,6.62,1.43,9.55,2.43,2.92,1,5.56,2.15,7.9,3.46,2.34,1.31,3.97,2.43,4.9,3.35,.93,.93,1.57,1.7,1.91,2.32,.34,.62,.62,1.41,.83,2.37,.21,.96,.36,2.1,.46,3.41,.1,1.31,.15,2.93,.15,4.85,0,2.06-.07,3.82-.21,5.27-.14,1.45-.38,2.62-.72,3.51-.35,.9-.76,1.55-1.24,1.96-.48,.41-1.03,.62-1.65,.62-1.03,0-2.34-.6-3.92-1.81-1.58-1.2-3.63-2.55-6.14-4.03-2.51-1.48-5.51-2.82-8.98-4.03-3.48-1.2-7.62-1.81-12.44-1.81-5.3,0-10.03,1.08-14.2,3.25-4.17,2.17-7.71,5.27-10.63,9.29-2.93,4.03-5.15,8.9-6.66,14.61-1.51,5.71-2.27,12.15-2.27,19.31,0,7.85,.81,14.64,2.43,20.39,1.62,5.75,3.92,10.48,6.92,14.2,2.99,3.72,6.61,6.49,10.84,8.31,4.23,1.82,9,2.74,14.3,2.74,4.82,0,8.98-.57,12.49-1.7s6.52-2.39,9.03-3.77c2.51-1.38,4.58-2.61,6.19-3.72,1.62-1.1,2.87-1.65,3.77-1.65,.69,0,1.24,.14,1.65,.41,.41,.28,.76,.83,1.03,1.65,.27,.83,.48,1.98,.62,3.46,.14,1.48,.21,3.46,.21,5.94Z"/></g><g><path class="d" d="M382.41,207.66h7.13l11.09,50.26h-7.42l-2.66-12.67h-24.7l-8.06,12.67h-7.99l32.62-50.26Zm2.3,7.78l-15.19,23.91h19.95l-4.75-23.91Z"/><path class="d" d="M412.93,226.82c.29-1.51,.72-3.46,1.01-5.62h6.34l-1.15,5.83h.14c2.16-3.46,6.12-6.7,12.53-6.7,7.13,0,12.24,3.74,12.24,11.52,0,2.16-.43,4.61-.86,6.7l-4.03,19.37h-6.77l4.54-21.96c.22-1.22,.36-2.66,.36-3.46,0-3.82-2.52-6.7-6.7-6.7-8.35,0-12.46,9.07-13.39,13.61l-3.89,18.51h-6.77l6.41-31.11Z"/><path class="d" d="M481.62,207.66h7.27l-9.5,43.92h20.88l-1.3,6.34h-28.23l10.87-50.26Z"/><path class="d" d="M545.2,214h-15.63l-9.43,43.92h-7.27l9.43-43.92h-15.63l1.37-6.34h38.52l-1.37,6.34Z"/><path class="d" d="M553.62,207.66h7.27l-10.8,50.26h-7.27l10.8-50.26Z"/><path class="d" d="M574.65,207.66h10.8l6.84,41.12,24.48-41.12h11.81l-10.73,50.26h-7.2l9.22-43.06h-.14l-25.85,43.06h-6.98l-6.98-43.06h-.14l-9.65,43.06h-6.98l11.52-50.26Z"/><path class="d" d="M638.8,221.2h6.77l-7.78,36.72h-6.77l7.78-36.72Zm9-8.21h-7.63l1.58-7.63h7.63l-1.58,7.63Z"/><path class="d" d="M657.01,226.82c.29-1.51,.72-3.46,1.01-5.62h6.34l-1.15,5.83h.14c2.16-3.46,6.12-6.7,12.53-6.7,7.13,0,12.24,3.74,12.24,11.52,0,2.16-.43,4.61-.87,6.7l-4.03,19.37h-6.77l4.54-21.96c.22-1.22,.36-2.66,.36-3.46,0-3.82-2.52-6.7-6.7-6.7-8.35,0-12.46,9.07-13.39,13.61l-3.89,18.51h-6.77l6.41-31.11Z"/><path class="d" d="M728.94,245.76c-.86,4.1-1.58,8.14-2.09,12.17h-6.34c.36-1.73,.65-3.74,1.22-5.62h-.14c-2.52,4.9-6.98,6.48-12.53,6.48-8.86,0-13.61-7.06-13.61-15.41,0-11.52,6.48-23.04,19.01-23.04,4.97,0,9.72,2.16,11.81,6.91h.14l4.82-23.33h6.77l-9.07,41.84Zm-17.35,7.56c8.5,0,12.39-10.58,12.39-17.5,0-5.47-3.24-10.01-9.15-10.01-7.99,0-12.17,10.15-12.17,17.07,0,5.83,2.74,10.44,8.93,10.44Z"/><path class="d" d="M741.39,221.2h8.21l1.8-8.5,7.27-2.52-2.3,11.02h10.08l-1.08,5.47h-10.15l-3.38,15.77c-.36,1.66-1.08,5.62-1.08,6.91,0,2.59,1.44,3.96,4.9,3.96,1.44,0,3.46-.36,4.75-.94l-1.01,5.62c-1.51,.58-4.68,.79-6.63,.79-6.41,0-8.78-4.25-8.78-8.14,0-2.38,.86-6.63,1.3-8.64l3.17-15.34h-8.06l1.01-5.47Z"/><path class="d" d="M773,226.82c.29-1.51,.72-3.46,1.01-5.62h6.34l-1.15,5.83h.14c2.16-3.46,6.12-6.7,12.53-6.7,.65,0,1.8,.14,3.1,.65l-1.51,5.98c-1.3-.5-2.38-.72-2.88-.72-8.35,0-12.46,9.07-13.39,13.61l-3.82,18.07h-6.77l6.41-31.11Z"/><path class="d" d="M823.26,257.28c-3.53,.86-7.2,1.51-10.87,1.51-8.93,0-16.92-3.6-16.92-16.56,0-10.15,7.13-21.89,20.09-21.89,8.86,0,13.83,5.33,13.83,14.04,0,2.45-.29,4.54-.65,6.7h-25.85c-.14,.79-.22,1.51-.22,2.3,0,7.7,4.75,9.94,11.3,9.94,3.38,0,7.06-.86,10.37-2.23l-1.08,6.19Zm-.86-21.24c.14-1.08,.22-1.94,.22-2.81,0-4.32-2.66-7.42-7.78-7.42-5.54,0-9.79,4.83-11.23,10.23h18.79Z"/><path class="d" d="M863.29,257.28c-3.53,.86-7.2,1.51-10.87,1.51-8.93,0-16.92-3.6-16.92-16.56,0-10.15,7.13-21.89,20.09-21.89,8.86,0,13.82,5.33,13.82,14.04,0,2.45-.29,4.54-.65,6.7h-25.85c-.14,.79-.22,1.51-.22,2.3,0,7.7,4.75,9.94,11.3,9.94,3.38,0,7.06-.86,10.37-2.23l-1.08,6.19Zm-.86-21.24c.14-1.08,.22-1.94,.22-2.81,0-4.32-2.67-7.42-7.78-7.42-5.54,0-9.79,4.83-11.23,10.23h18.79Z"/><path class="d" d="M930.32,257.42c-2.95,.94-6.12,1.37-9.22,1.37-13.39,0-23.62-7.06-23.62-22.97,0-12.31,8.5-29.02,30.17-29.02,4.03,0,8.21,.79,11.95,2.3l-2.09,6.19c-3.02-1.3-6.34-2.16-9.72-2.16-15.27,0-22.68,11.23-22.68,23.04,0,11.02,7.34,16.27,17.14,16.27,3.02,0,6.19-.58,9-1.73l-.94,6.7Z"/><path class="d" d="M960.49,220.34c9.87,0,16.27,5.98,16.27,16.06,0,12.46-7.34,22.39-20.52,22.39-10.08,0-16.71-5.47-16.71-16.35,0-12.24,7.49-22.11,20.95-22.11Zm-4.32,32.98c7.63,0,13.39-8.64,13.39-16.92,0-5.47-3.24-10.58-9.36-10.58-9,0-13.47,9.5-13.47,17.14,0,5.83,3.02,10.37,9.43,10.37Z"/><path class="d" d="M989.43,225.38c.29-1.3,.43-2.59,.72-4.18h6.34l-.86,5.04h.14c2.59-3.89,6.84-5.9,11.67-5.9,4.32,0,8.5,2.02,9.72,6.41,3.6-4.18,7.42-6.41,13.03-6.41,5.98,0,10.22,3.96,10.22,9.58,0,2.23-.5,5.11-1.08,7.71l-4.25,20.31h-6.77l4.9-23.26c.29-1.44,.43-2.66,.43-3.46,0-3.02-1.94-5.4-5.4-5.4-6.84,0-10.66,7.99-11.88,13.68l-4.1,18.43h-6.77l4.9-23.26c.29-1.44,.43-2.66,.43-3.46,0-3.02-1.94-5.4-5.4-5.4-6.84,0-10.66,7.99-11.88,13.68l-4.1,18.43h-6.77l6.77-32.55Z"/><path class="d" d="M1051.42,233.37c.72-4.1,1.44-8.14,1.94-12.17h6.34l-1.22,5.62h.14c2.66-4.61,7.92-6.48,13.03-6.48,8.28,0,13.1,6.05,13.1,13.97,0,13.46-6.26,24.48-18.5,24.48-6.41,0-10.23-2.16-11.95-6.34h-.14l-4.39,20.59h-6.77l8.42-39.67Zm13.9,19.95c7.7,0,12.24-9.29,12.24-18.43,0-6.19-3.53-9.07-8.21-9.07-7.92,0-13.18,8.79-13.18,17.86,0,4.97,2.95,9.65,9.15,9.65Z"/><path class="d" d="M1098.58,222.21c3.24-1.08,7.56-1.87,10.22-1.87,7.42,0,14.54,2.88,14.54,11.67,0,1.66-.29,4.03-.65,5.76-1.37,6.84-2.88,13.68-3.82,20.16h-6.26l1.22-6.12h-.14c-2.3,4.39-7.06,6.98-11.95,6.98-6.19,0-11.74-3.24-11.74-10.15,0-10.44,9.43-13.39,21.75-13.39,1.44,0,3.24,.14,4.9,.22,.14-.72,.36-1.51,.36-2.38,0-5.26-3.46-7.27-8.43-7.27-3.96,0-8.21,1.3-11.23,3.1l1.22-6.7Zm11.45,18.07c-5.11,0-12.82,1.37-12.82,8.06,0,3.24,2.81,4.97,6.05,4.97,6.84,0,11.16-6.84,11.95-13.03h-5.18Z"/><path class="d" d="M1137.1,226.82c.29-1.51,.72-3.46,1.01-5.62h6.34l-1.15,5.83h.14c2.16-3.46,6.12-6.7,12.53-6.7,7.13,0,12.24,3.74,12.24,11.52,0,2.16-.43,4.61-.87,6.7l-4.03,19.37h-6.77l4.54-21.96c.22-1.22,.36-2.66,.36-3.46,0-3.82-2.52-6.7-6.7-6.7-8.35,0-12.46,9.07-13.39,13.61l-3.89,18.51h-6.77l6.41-31.11Z"/><path class="d" d="M1170.58,267.79c.5,.29,1.73,.65,2.95,.65,4.1-.07,6.91-2.81,9.72-8.5l-5.9-38.74h7.06l4.25,29.31h.14l15.99-29.31h7.27l-25.06,43.64c-3.24,5.62-5.69,9.07-12.46,9.07-1.66,0-3.38-.14-5.11-.5l1.15-5.62Z"/></g></svg>